<svg width="28" height="30" viewBox="0 0 28 30" fill="none" xmlns="http://www.w3.org/2000/svg">
<g clip-path="url(#clip0)">
<path d="M19.1099 6.51004L13.9399 11.68C13.3902 12.2607 13.0888 13.0331 13.0998 13.8326C13.1108 14.6322 13.4332 15.3959 13.9987 15.9613C14.5641 16.5267 15.3278 16.8492 16.1274 16.8601C16.9269 16.8711 17.6992 16.5697 18.2799 16.02L24.8799 9.42001C25.3739 8.9966 25.7751 8.47559 26.0582 7.88974C26.3413 7.30388 26.5003 6.66585 26.525 6.01565C26.5498 5.36545 26.4398 4.71716 26.2021 4.11148C25.9643 3.5058 25.6039 2.95581 25.1435 2.49606C24.683 2.03631 24.1325 1.67675 23.5265 1.43991C22.9204 1.20307 22.272 1.09405 21.6218 1.11978C20.9717 1.14551 20.3338 1.3054 19.7484 1.58938C19.163 1.87337 18.6426 2.27535 18.2199 2.77005L3.40991 17.58C0.689905 20.31 0.479893 24.52 2.95989 27C5.43989 29.48 9.65988 29.28 12.3799 26.55L26.4699 12.46" stroke="#A11A16" stroke-width="2.46" stroke-miterlimit="10" stroke-linecap="round"/>
</g>
<defs>
<clipPath id="clip0">
<rect width="27.7" height="29.96" fill="white"/>
</clipPath>
</defs>
</svg>
