<svg id="Слой_1" data-name="Слой 1" xmlns="http://www.w3.org/2000/svg" viewBox="0 0 186.36 266.97"><defs><style>.cls-1{fill:#fff;}</style></defs><title>icon_documentation</title><path class="cls-1" d="M-389.87-164.87c-12.3,0-30.15-5.3-53.12-15.78-24.11-11-40.22-21.47-47.89-31.14-6.77-8.55-5.07-14.11-4.39-15.6l10.74-23.55a11.46,11.46,0,0,1,6.95-6.16l22.21-7a3.69,3.69,0,0,0,2.44-4.36,57,57,0,0,1,3.62-37.27,57.14,57.14,0,0,1,33.38-30.49,57.2,57.2,0,0,1,45.16,3,58,58,0,0,1,27.56,72.64,57.71,57.71,0,0,1-27.05,30h0a3.61,3.61,0,0,0-1.58,4.63l9.25,21.39a11.45,11.45,0,0,1-.09,9.28l-10.74,23.55c-.68,1.5-3.76,6.42-14.66,6.91C-388.66-164.88-389.26-164.87-389.87-164.87Zm-96.08-58.87c.13,1.46,2.62,13.7,47.11,34,45.51,20.76,56.28,13.88,56.32,13.78l10.74-23.55a1.42,1.42,0,0,0,0-1.16L-381-222.07a13.64,13.64,0,0,1,6.16-17.48h0a47.65,47.65,0,0,0,22.35-24.77,48,48,0,0,0-22.77-60,47.38,47.38,0,0,0-37.34-2.47,47.26,47.26,0,0,0-27.59,25.21,47.16,47.16,0,0,0-3,30.8,13.71,13.71,0,0,1-9.14,16.21l-22.21,7a1.41,1.41,0,0,0-.87.77Z" transform="translate(525.58 339.54)"/><path class="cls-1" d="M-456.26-72.57c-18.17,0-35.32-4.83-48.28-13.6-13.57-9.17-21-21.57-21-34.9s7.47-25.72,21-34.89c13-8.77,30.11-13.6,48.28-13.6s35.32,4.83,48.28,13.6c13.57,9.17,21,21.56,21,34.89s-7.47,25.73-21,34.9C-420.94-77.4-438.09-72.57-456.26-72.57Zm0-87c-32.71,0-59.32,17.27-59.32,38.49s26.61,38.5,59.32,38.5,59.32-17.27,59.32-38.5S-423.55-159.56-456.26-159.56Z" transform="translate(525.58 339.54)"/><path class="cls-1" d="M-457.26-106c-14.68,0-30.49-4.71-30.49-15s15.81-15.05,30.49-15.05,30.48,4.71,30.48,15.05S-442.58-106-457.26-106Zm-20.35-15c1.35,1.66,8.37,5,20.35,5s19-3.39,20.35-5c-1.35-1.66-8.37-5.05-20.35-5.05S-476.26-122.73-477.61-121.07Z" transform="translate(525.58 339.54)"/><path class="cls-1" d="M-460.27-89.45h-.24c-12.22-.59-23.68-3.77-32.28-9a5,5,0,0,1-1.7-6.86,5,5,0,0,1,6.87-1.71c7.2,4.35,17,7,27.59,7.54a5,5,0,0,1,4.75,5.23A5,5,0,0,1-460.27-89.45Zm15.63-.73a5,5,0,0,1-4.94-4.28,5,5,0,0,1,4.22-5.67c10.77-1.58,20.14-5.5,25.72-10.78a5,5,0,0,1,7.07.2,5,5,0,0,1-.2,7.07c-7.14,6.75-18.2,11.51-31.14,13.4A4.59,4.59,0,0,1-444.64-90.18Zm-56.53-18.42a5,5,0,0,1-4.46-2.74,21.25,21.25,0,0,1-2.39-9.73c0-8.72,5.45-16.79,15.35-22.72a5,5,0,0,1,6.86,1.72,5,5,0,0,1-1.72,6.86c-6.76,4.05-10.49,9.07-10.49,14.14a11.39,11.39,0,0,0,1.31,5.2,5,5,0,0,1-2.2,6.72A4.93,4.93,0,0,1-501.17-108.6Zm91.67-7.34h-.06A5,5,0,0,1-414.5-121v-.07c0-6.57-6.26-13-16.75-17.22A5,5,0,0,1-434-144.8a5,5,0,0,1,6.5-2.77c14.42,5.79,23,15.7,23,26.5v.19A5,5,0,0,1-409.5-115.94Zm-66.13-24.45a5,5,0,0,1-4.83-3.74,5,5,0,0,1,3.58-6.1,82,82,0,0,1,20.62-2.55,85.67,85.67,0,0,1,12.48.9,5,5,0,0,1,4.21,5.68,5,5,0,0,1-5.67,4.22,75.53,75.53,0,0,0-11-.8,71.86,71.86,0,0,0-18.1,2.23A5.08,5.08,0,0,1-475.63-140.39Z" transform="translate(525.58 339.54)"/><path class="cls-1" d="M-389.44-189.07a5.22,5.22,0,0,1-1.1-.12c-1-.23-24.82-5.65-42.83-13.44-18.26-7.89-38.26-24.79-39.11-25.51a5,5,0,0,1-.57-7,5,5,0,0,1,7.05-.58c.19.16,19.72,16.65,36.6,23.95,17.16,7.43,40.82,12.81,41.06,12.86a5,5,0,0,1,3.78,6A5,5,0,0,1-389.44-189.07Z" transform="translate(525.58 339.54)"/><path class="cls-1" d="M-398.31-232.45a5.22,5.22,0,0,1-1.1-.12A113.94,113.94,0,0,1-416.62-238c-7.52-3.25-15.64-10.11-16-10.4a5,5,0,0,1-.58-7.05,5,5,0,0,1,7.05-.58h0c.07.07,7.34,6.2,13.48,8.85a105.52,105.52,0,0,0,15.44,4.83,5,5,0,0,1,3.78,6A5,5,0,0,1-398.31-232.45Z" transform="translate(525.58 339.54)"/></svg>