<svg xmlns="http://www.w3.org/2000/svg" viewBox="0 0 347.98 262.51">
  <defs>
    <style>
      .a {
        fill: #fff;
      }
    </style>
  </defs>
  <title>icon_dual_education_2</title>
  <g>
    <path class="a" d="M274.9,316.27l-22.51,4.21a4.46,4.46,0,0,1-5.07-5.73l7.8-24.63-5-26.82a4.46,4.46,0,0,1,2.79-5l94.76-36.2a4.46,4.46,0,0,1,3.19,8.34l-91.29,34.87,4.54,24.27a4.62,4.62,0,0,1,.07.65,4.41,4.41,0,0,1,1.17,1.15l12.41,18a4.45,4.45,0,0,1-2.85,6.92Zm-16.83-5.93,8.43-1.58-5.44-7.85Z" transform="translate(-247.11 -167.41)"/>
    <g>
      <g>
        <path class="a" d="M444,359.39a15.39,15.39,0,0,1-5.76-1.13L302.5,303.19a15.31,15.31,0,0,1,0-28.37l135.76-55.08a15.19,15.19,0,0,1,11.51,0l135.76,55.08a15.3,15.3,0,0,1,0,28.37l-8,3.25A6,6,0,0,1,573,295.39l8-3.25a3.38,3.38,0,0,0,0-6.27L445.29,230.79a3.38,3.38,0,0,0-2.54,0L307,285.87a3.38,3.38,0,0,0,0,6.27l135.76,55.07a3.38,3.38,0,0,0,2.54,0l75.59-30.67a6,6,0,0,1,4.49,11l-75.6,30.67A15.3,15.3,0,0,1,444,359.39Z" transform="translate(-247.11 -167.41)"/>
        <path class="a" d="M446.93,429.91c-30,0-51.5-3-63.94-8.77-11.33-5.3-12.21-11.75-12.21-13.61V368a15.3,15.3,0,0,1,21.06-14.19l45.32,18.39a15,15,0,0,0,11.37,0h0L502,350.52a15.31,15.31,0,0,1,21.06,14.19v42.82c0,1.86-.88,8.31-12.21,13.61C498.43,427,476.92,429.91,446.93,429.91ZM382.7,406.65c1.21,1.68,10.55,11.34,64.23,11.34s63-9.66,64.22-11.34V364.71a3.38,3.38,0,0,0-4.65-3.14L453,383.27a26.92,26.92,0,0,1-20.34,0l-45.32-18.39A3.38,3.38,0,0,0,382.7,368Z" transform="translate(-247.11 -167.41)"/>
      </g>
      <path class="a" d="M542.77,372.68a5.17,5.17,0,0,1-.38-4.88l10.25-22.93a5.11,5.11,0,0,1,1.07-1.55,4.74,4.74,0,0,1-.06-.75V314.18L443.1,294.05a5.13,5.13,0,0,1,1.84-10.1l114.76,20.9a5.14,5.14,0,0,1,4.22,5v31.38l14,26.19a5.13,5.13,0,0,1-4.53,7.55H547.08A5.14,5.14,0,0,1,542.77,372.68Zm16.7-17.95-4.48,10h9.86Z" transform="translate(-247.11 -167.41)"/>
      <path class="a" d="M444,359.39a15.39,15.39,0,0,1-5.76-1.13L302.5,303.19A6,6,0,0,1,307,292.14l135.76,55.07a3.38,3.38,0,0,0,2.54,0l75.59-30.67a6,6,0,0,1,4.49,11l-75.6,30.67A15.3,15.3,0,0,1,444,359.39Z" transform="translate(-247.11 -167.41)"/>
      <path class="a" d="M575.27,306.88A6,6,0,0,1,573,295.39l8-3.25a3.38,3.38,0,0,0,0-6.27L445.29,230.79a3.38,3.38,0,0,0-2.54,0L307,285.87a6,6,0,0,1-4.49-11.05l135.76-55.08a15.19,15.19,0,0,1,11.51,0l135.76,55.08a15.3,15.3,0,0,1,0,28.37l-8,3.25A5.88,5.88,0,0,1,575.27,306.88Z" transform="translate(-247.11 -167.41)"/>
      <path class="a" d="M446.93,429.91c-30,0-51.5-3-63.94-8.77-11.33-5.3-12.21-11.75-12.21-13.61V368a15.3,15.3,0,0,1,21.06-14.19l45.32,18.39a15,15,0,0,0,11.37,0h0L502,350.52a15.31,15.31,0,0,1,21.06,14.19v42.82c0,1.86-.88,8.31-12.21,13.61C498.43,427,476.92,429.91,446.93,429.91ZM382.7,406.65c1.21,1.68,10.55,11.34,64.23,11.34s63-9.66,64.22-11.34V364.71a3.38,3.38,0,0,0-4.65-3.14L453,383.27a26.92,26.92,0,0,1-20.34,0l-45.32-18.39A3.38,3.38,0,0,0,382.7,368Z" transform="translate(-247.11 -167.41)"/>
      <path class="a" d="M542.77,372.68a5.17,5.17,0,0,1-.38-4.88l10.25-22.93a5.11,5.11,0,0,1,1.07-1.55,4.74,4.74,0,0,1-.06-.75V314.18L443.1,294.05a5.13,5.13,0,0,1,1.84-10.1l114.76,20.9a5.14,5.14,0,0,1,4.22,5v31.38l14,26.19a5.13,5.13,0,0,1-4.53,7.55H547.08A5.14,5.14,0,0,1,542.77,372.68Zm16.7-17.95-4.48,10h9.86Z" transform="translate(-247.11 -167.41)"/>
    </g>
    <g>
      <g>
        <path class="a" d="M444,359.39a15.39,15.39,0,0,1-5.76-1.13L302.5,303.19a15.31,15.31,0,0,1,0-28.37l135.76-55.08a15.19,15.19,0,0,1,11.51,0l135.76,55.08a15.3,15.3,0,0,1,0,28.37l-8,3.25A6,6,0,0,1,573,295.39l8-3.25a3.38,3.38,0,0,0,0-6.27L445.29,230.79a3.38,3.38,0,0,0-2.54,0L307,285.87a3.38,3.38,0,0,0,0,6.27l135.76,55.07a3.38,3.38,0,0,0,2.54,0l75.59-30.67a6,6,0,0,1,4.49,11l-75.6,30.67A15.3,15.3,0,0,1,444,359.39Z" transform="translate(-247.11 -167.41)"/>
        <path class="a" d="M446.93,429.91c-30,0-51.5-3-63.94-8.77-11.33-5.3-12.21-11.75-12.21-13.61V368a15.3,15.3,0,0,1,21.06-14.19l45.32,18.39a15,15,0,0,0,11.37,0h0L502,350.52a15.31,15.31,0,0,1,21.06,14.19v42.82c0,1.86-.88,8.31-12.21,13.61C498.43,427,476.92,429.91,446.93,429.91ZM382.7,406.65c1.21,1.68,10.55,11.34,64.23,11.34s63-9.66,64.22-11.34V364.71a3.38,3.38,0,0,0-4.65-3.14L453,383.27a26.92,26.92,0,0,1-20.34,0l-45.32-18.39A3.38,3.38,0,0,0,382.7,368Z" transform="translate(-247.11 -167.41)"/>
      </g>
      <path class="a" d="M542.77,372.68a5.17,5.17,0,0,1-.38-4.88l10.25-22.93a5.11,5.11,0,0,1,1.07-1.55,4.74,4.74,0,0,1-.06-.75V314.18L443.1,294.05a5.13,5.13,0,0,1,1.84-10.1l114.76,20.9a5.14,5.14,0,0,1,4.22,5v31.38l14,26.19a5.13,5.13,0,0,1-4.53,7.55H547.08A5.14,5.14,0,0,1,542.77,372.68Zm16.7-17.95-4.48,10h9.86Z" transform="translate(-247.11 -167.41)"/>
      <path class="a" d="M444,359.39a15.39,15.39,0,0,1-5.76-1.13L302.5,303.19A6,6,0,0,1,307,292.14l135.76,55.07a3.38,3.38,0,0,0,2.54,0l75.59-30.67a6,6,0,0,1,4.49,11l-75.6,30.67A15.3,15.3,0,0,1,444,359.39Z" transform="translate(-247.11 -167.41)"/>
      <path class="a" d="M575.27,306.88A6,6,0,0,1,573,295.39l8-3.25a3.38,3.38,0,0,0,0-6.27L445.29,230.79a3.38,3.38,0,0,0-2.54,0L307,285.87a6,6,0,0,1-4.49-11.05l135.76-55.08a15.19,15.19,0,0,1,11.51,0l135.76,55.08a15.3,15.3,0,0,1,0,28.37l-8,3.25A5.88,5.88,0,0,1,575.27,306.88Z" transform="translate(-247.11 -167.41)"/>
      <path class="a" d="M446.93,429.91c-30,0-51.5-3-63.94-8.77-11.33-5.3-12.21-11.75-12.21-13.61V368a15.3,15.3,0,0,1,21.06-14.19l45.32,18.39a15,15,0,0,0,11.37,0h0L502,350.52a15.31,15.31,0,0,1,21.06,14.19v42.82c0,1.86-.88,8.31-12.21,13.61C498.43,427,476.92,429.91,446.93,429.91ZM382.7,406.65c1.21,1.68,10.55,11.34,64.23,11.34s63-9.66,64.22-11.34V364.71a3.38,3.38,0,0,0-4.65-3.14L453,383.27a26.92,26.92,0,0,1-20.34,0l-45.32-18.39A3.38,3.38,0,0,0,382.7,368Z" transform="translate(-247.11 -167.41)"/>
      <path class="a" d="M542.77,372.68a5.17,5.17,0,0,1-.38-4.88l10.25-22.93a5.11,5.11,0,0,1,1.07-1.55,4.74,4.74,0,0,1-.06-.75V314.18L443.1,294.05a5.13,5.13,0,0,1,1.84-10.1l114.76,20.9a5.14,5.14,0,0,1,4.22,5v31.38l14,26.19a5.13,5.13,0,0,1-4.53,7.55H547.08A5.14,5.14,0,0,1,542.77,372.68Zm16.7-17.95-4.48,10h9.86Z" transform="translate(-247.11 -167.41)"/>
    </g>
    <path class="a" d="M303.3,259a5.17,5.17,0,0,0,3,3.22l6.52,2.64,13.86-5.57-11.91-4.83Z" transform="translate(-247.11 -167.41)"/>
    <path class="a" d="M515.1,216.28l-118-47.89a13.24,13.24,0,0,0-10,0L269,216.28A13.31,13.31,0,0,0,269,241l2.87,1.17,11.07-4.39a5.18,5.18,0,0,0-3.07-3.56l-7-2.83a2.94,2.94,0,0,1,0-5.45L390.94,178a2.92,2.92,0,0,1,2.21,0L511.2,225.89a2.94,2.94,0,0,1,0,5.45l-3.46,1.41,12.08,5a13.31,13.31,0,0,0-4.72-21.43Z" transform="translate(-247.11 -167.41)"/>
    <path class="a" d="M356.3,339.2c-33.68-1.54-40.16-8.24-41.09-9.53v-7.09l-10.37-4.19v12.05c0,1.61.76,7.22,10.61,11.83,10.82,5.06,29.53,7.63,55.61,7.63,3.9,0,7.65-.07,11.24-.19Z" transform="translate(-247.11 -167.41)"/>
  </g>
</svg>
