<svg id="Слой_1" data-name="Слой 1" xmlns="http://www.w3.org/2000/svg" viewBox="0 0 148.8 263.8"><defs><style>.cls-1{fill:#fff;}</style></defs><title>icon_s_fr_ch</title><path class="cls-1" d="M1293.34-247.88a18.12,18.12,0,0,1-8.14-1.94,18.07,18.07,0,0,1-9.11-10.53l-13.77-41.48a18.07,18.07,0,0,1,1-13.89,18.06,18.06,0,0,1,10.53-9.11l41.49-13.77a18.05,18.05,0,0,1,13.88,1,18.06,18.06,0,0,1,9.11,10.53l13.78,41.49a18.08,18.08,0,0,1-1,13.89,18.09,18.09,0,0,1-10.53,9.11l-41.49,13.77A18.36,18.36,0,0,1,1293.34-247.88Zm27.74-81.65a8.2,8.2,0,0,0-2.58.42L1277-315.34a8.14,8.14,0,0,0-4.74,4.1,8.11,8.11,0,0,0-.46,6.26l13.77,41.48a8.17,8.17,0,0,0,4.11,4.75,8.13,8.13,0,0,0,6.25.45l41.49-13.77a8.12,8.12,0,0,0,4.74-4.11,8.13,8.13,0,0,0,.45-6.25l-13.77-41.49a8.14,8.14,0,0,0-4.1-4.74A8.18,8.18,0,0,0,1321.08-329.53Z" transform="translate(-1261.39 339.54)"/><path class="cls-1" d="M1350.48-75.74a18.12,18.12,0,0,1-8.14-1.94,18.09,18.09,0,0,1-9.11-10.53l-13.77-41.49a18.12,18.12,0,0,1,1-13.89A18.08,18.08,0,0,1,1331-152.7l41.48-13.77a18.07,18.07,0,0,1,13.89,1,18,18,0,0,1,9.11,10.53l13.77,41.48a18.07,18.07,0,0,1-1,13.89,18.06,18.06,0,0,1-10.53,9.11l-41.49,13.77A18.08,18.08,0,0,1,1350.48-75.74Zm27.74-81.66a8.26,8.26,0,0,0-2.59.42l-41.48,13.77a8.14,8.14,0,0,0-4.75,4.11,8.13,8.13,0,0,0-.45,6.25l13.77,41.49a8.14,8.14,0,0,0,4.1,4.74,8.16,8.16,0,0,0,6.26.45l41.49-13.77a8.14,8.14,0,0,0,4.74-4.1,8.16,8.16,0,0,0,.45-6.26L1386-151.78a8.19,8.19,0,0,0-4.1-4.75A8.18,8.18,0,0,0,1378.22-157.4Z" transform="translate(-1261.39 339.54)"/><path class="cls-1" d="M1343-187a5,5,0,0,1-2-.39l-29.58-12.47a5,5,0,0,1-2.66-6.55,5,5,0,0,1,6.55-2.67l25.76,10.87,52.43-79a5,5,0,0,1,6.93-1.4,5,5,0,0,1,1.4,6.93l-54.72,82.42A5,5,0,0,1,1343-187Z" transform="translate(-1261.39 339.54)"/><path class="cls-1" d="M1374.26-218.88l-7,10.58,4,11.94a8.13,8.13,0,0,1-.45,6.25A8.11,8.11,0,0,1,1366-186l-41.49,13.78a8.17,8.17,0,0,1-6.25-.46,8.12,8.12,0,0,1-4.11-4.74l-13.77-41.49a8.13,8.13,0,0,1,.45-6.25,8.16,8.16,0,0,1,4.75-4.1L1347.06-243a8.31,8.31,0,0,1,2.59-.42,8.19,8.19,0,0,1,3.67.88,8.14,8.14,0,0,1,4.1,4.74l.35,1,6.31-9.52a18.1,18.1,0,0,0-6.28-5.21,18.07,18.07,0,0,0-13.89-1l-41.48,13.78a18,18,0,0,0-10.53,9.11,18.05,18.05,0,0,0-1,13.88l13.77,41.49a18.09,18.09,0,0,0,9.11,10.53,18.12,18.12,0,0,0,8.14,1.94,18.36,18.36,0,0,0,5.75-.93l41.49-13.77a18.11,18.11,0,0,0,10.53-9.12,18.05,18.05,0,0,0,1-13.88Z" transform="translate(-1261.39 339.54)"/></svg>