<svg width="70" height="100" viewBox="0 0 70 100" fill="none" xmlns="http://www.w3.org/2000/svg">
<path d="M67 0H3C1.34315 0 0 1.34315 0 3V97C0 98.6569 1.34315 100 3 100H67C68.6569 100 70 98.6569 70 97V3C70 1.34315 68.6569 0 67 0Z" fill="#A11A16"/>
<path d="M5.15001 7.20999V10.49C5.15001 10.856 5.29539 11.207 5.55419 11.4658C5.81299 11.7246 6.16402 11.87 6.53002 11.87C6.89602 11.87 7.24705 11.7246 7.50585 11.4658C7.76465 11.207 7.91002 10.856 7.91002 10.49V6.29999C7.92997 6.01001 7.89009 5.71904 7.79283 5.44513C7.69558 5.17122 7.543 4.92023 7.34465 4.70776C7.1463 4.4953 6.90641 4.32591 6.63982 4.21008C6.37323 4.09426 6.08569 4.03448 5.79503 4.03448C5.50437 4.03448 5.21677 4.09426 4.95018 4.21008C4.6836 4.32591 4.4437 4.4953 4.24535 4.70776C4.047 4.92023 3.89448 5.17122 3.79723 5.44513C3.69997 5.71904 3.66009 6.01001 3.68004 6.29999V15.7C3.6391 16.0981 3.68218 16.5005 3.80651 16.8809C3.93084 17.2614 4.13362 17.6115 4.40178 17.9086C4.66994 18.2058 4.99747 18.4433 5.36321 18.6059C5.72895 18.7685 6.12476 18.8525 6.52501 18.8525C6.92527 18.8525 7.32107 18.7685 7.68682 18.6059C8.05256 18.4433 8.38008 18.2058 8.64824 17.9086C8.9164 17.6115 9.11919 17.2614 9.24352 16.8809C9.36785 16.5005 9.41098 16.0981 9.37004 15.7V6.76001" stroke="#EFEFEF" stroke-width="1.1" stroke-miterlimit="10" stroke-linecap="round"/>
<path opacity="0.98" d="M10.77 55.78V38.59H22.55V41.49H14.2401V45.59H21.41V48.5H14.2401V55.8L10.77 55.78Z" fill="white"/>
<path opacity="0.98" d="M25.3003 55.78V38.59H28.7703V55.77L25.3003 55.78Z" fill="white"/>
<path opacity="0.98" d="M32.1699 55.78V38.78H35.6399V52.92H44.2699V55.82L32.1699 55.78Z" fill="white"/>
<path opacity="0.98" d="M46.7402 55.78V38.59H59.4802V41.49H50.2102V45.3H58.8302V48.2H50.2102V52.87H59.8002V55.77L46.7402 55.78Z" fill="white"/>
<path d="M57.8125 2.8125L67.1875 12.1875" stroke="white" stroke-width="5" stroke-miterlimit="10" stroke-linecap="round"/>
<path d="M67.1875 2.8125L57.8125 12.1875" stroke="white" stroke-width="5" stroke-miterlimit="10" stroke-linecap="round"/>
</svg>
