<svg id="Слой_1" data-name="Слой 1" xmlns="http://www.w3.org/2000/svg" viewBox="0 0 206.53 263.12"><defs><style>.cls-1{fill:#fff;}</style></defs><title>news</title><path class="cls-1" d="M881.87-76.42H770.27a20,20,0,0,1-20-20V-255.21a20,20,0,0,1,20-20h111.6a20,20,0,0,1,20,20V-96.42A20,20,0,0,1,881.87-76.42ZM770.27-265.21a10,10,0,0,0-10,10V-96.42a10,10,0,0,0,10,10h111.6a10,10,0,0,0,10-10V-255.21a10,10,0,0,0-10-10Z" transform="translate(-695.34 339.54)"/><path class="cls-1" d="M872.94-194.29H782.76a15.22,15.22,0,0,1-15.21-15.2v-30a15.22,15.22,0,0,1,15.21-15.21h90.18a15.22,15.22,0,0,1,15.21,15.21v30A15.22,15.22,0,0,1,872.94-194.29Zm-90.18-50a4.8,4.8,0,0,0-4.8,4.8v30a4.8,4.8,0,0,0,4.8,4.79h90.18a4.8,4.8,0,0,0,4.8-4.79v-30a4.8,4.8,0,0,0-4.8-4.8Z" transform="translate(-695.34 339.54)"/><path class="cls-1" d="M882.5-148.19H772.31a5.2,5.2,0,0,1-5.2-5.21,5.2,5.2,0,0,1,5.2-5.2H882.5a5.2,5.2,0,0,1,5.2,5.2A5.2,5.2,0,0,1,882.5-148.19Z" transform="translate(-695.34 339.54)"/><path class="cls-1" d="M882.5-123H772.31a5.2,5.2,0,0,1-5.2-5.2,5.2,5.2,0,0,1,5.2-5.2H882.5a5.2,5.2,0,0,1,5.2,5.2A5.2,5.2,0,0,1,882.5-123Z" transform="translate(-695.34 339.54)"/><path class="cls-1" d="M882.5-173.38H772.31a5.2,5.2,0,0,1-5.2-5.2,5.2,5.2,0,0,1,5.2-5.21H882.5a5.2,5.2,0,0,1,5.2,5.21A5.2,5.2,0,0,1,882.5-173.38Z" transform="translate(-695.34 339.54)"/><path class="cls-1" d="M882.5-97.82H772.31a5.2,5.2,0,0,1-5.2-5.2,5.2,5.2,0,0,1,5.2-5.2H882.5a5.2,5.2,0,0,1,5.2,5.2A5.2,5.2,0,0,1,882.5-97.82Z" transform="translate(-695.34 339.54)"/><path class="cls-1" d="M711-151.76a10,10,0,0,1-5.63-9v-158.8a10,10,0,0,1,10-10H826.93a10,10,0,0,1,10,9.66h10a20,20,0,0,0-20-19.66H715.34a20,20,0,0,0-20,20v158.8A20,20,0,0,0,711-141.24Z" transform="translate(-695.34 339.54)"/><path class="cls-1" d="M738.44-119.41a10,10,0,0,1-5.63-9V-287.18a10,10,0,0,1,10-10H854.4a10,10,0,0,1,10,9.66h10a20,20,0,0,0-20-19.66H742.81a20,20,0,0,0-20,20v158.79a20,20,0,0,0,15.63,19.51Z" transform="translate(-695.34 339.54)"/></svg>