<svg id="Слой_1" data-name="Слой 1" xmlns="http://www.w3.org/2000/svg" viewBox="0 0 219.65 263.33"><defs><style>.cls-1,.cls-3{fill:none;stroke:#fff;stroke-miterlimit:10;}.cls-1{stroke-width:7.41px;}.cls-2{fill:#fff;}.cls-3{stroke-width:11.61px;}</style></defs><title>icon_notifications</title><path class="cls-1" d="M564.71-228.63" transform="translate(-425.86 339.54)"/><path class="cls-1" d="M564.71-228.63" transform="translate(-425.86 339.54)"/><path class="cls-2" d="M577.94-277.59A4.92,4.92,0,0,0,582-274.5,26.23,26.23,0,0,1,600.69-264a26.23,26.23,0,0,1,4.57,21,4.9,4.9,0,0,0,1.76,4.82l.12.1A4.92,4.92,0,0,0,615-240.8a36.21,36.21,0,0,0-6.28-29.11,36.23,36.23,0,0,0-25.88-14.55,4.92,4.92,0,0,0-5,6.72Z" transform="translate(-425.86 339.54)"/><path class="cls-2" d="M573.6-292.39a4.9,4.9,0,0,0,4.79,3.12A40.27,40.27,0,0,1,612.91-273a40.29,40.29,0,0,1,5.4,37.85,4.89,4.89,0,0,0,1.56,5.5l.12.1a4.92,4.92,0,0,0,7.68-2.11A50.27,50.27,0,0,0,621-278.93a50.27,50.27,0,0,0-43.13-20.32,4.91,4.91,0,0,0-4.27,6.72Z" transform="translate(-425.86 339.54)"/><path class="cls-2" d="M568-306.62a4.94,4.94,0,0,0,5.27,3.05,55,55,0,0,1,51.5,21.81,55,55,0,0,1,5.69,55.7,4.92,4.92,0,0,0,1.36,5.95l.14.11a4.91,4.91,0,0,0,7.51-1.72,65,65,0,0,0-6.66-66,65,65,0,0,0-61-25.77,4.91,4.91,0,0,0-3.86,6.68Z" transform="translate(-425.86 339.54)"/><path class="cls-2" d="M493.43-277.59a4.91,4.91,0,0,1-4.08,3.09A26.27,26.27,0,0,0,470.68-264a26.31,26.31,0,0,0-4.57,21,4.89,4.89,0,0,1-1.75,4.82l-.12.1a4.92,4.92,0,0,1-7.89-2.77,36.25,36.25,0,0,1,6.29-29.11,36.23,36.23,0,0,1,25.88-14.55,4.92,4.92,0,0,1,5,6.72Z" transform="translate(-425.86 339.54)"/><path class="cls-2" d="M497.78-292.39a4.92,4.92,0,0,1-4.8,3.12A40.26,40.26,0,0,0,458.47-273a40.29,40.29,0,0,0-5.4,37.85,4.89,4.89,0,0,1-1.57,5.5l-.11.1a4.93,4.93,0,0,1-7.69-2.11,50.27,50.27,0,0,1,6.73-47.28,50.25,50.25,0,0,1,43.13-20.32,4.92,4.92,0,0,1,4.27,6.72Z" transform="translate(-425.86 339.54)"/><path class="cls-2" d="M503.37-306.62a5,5,0,0,1-5.28,3.05,55,55,0,0,0-51.49,21.81,55,55,0,0,0-5.69,55.7,5,5,0,0,1-1.36,5.95l-.14.11a4.92,4.92,0,0,1-7.52-1.72,65,65,0,0,1,6.67-66,65,65,0,0,1,61-25.77,4.92,4.92,0,0,1,3.87,6.68Z" transform="translate(-425.86 339.54)"/><path class="cls-3" d="M617.45-116.86h0a6.84,6.84,0,0,1-6.68-5c-3.9-15.31-15.13-61.9-15.13-90.71h0c-.9-31.62-27.75-57-60.76-57h0c-33,0-59.85,25.38-60.76,57h0c0,28.81-11.23,75.4-15.13,90.71a6.83,6.83,0,0,1-6.68,5h0a7.83,7.83,0,0,0-8,7.69V-89.7a7.84,7.84,0,0,0,8,7.69H617.45a7.83,7.83,0,0,0,8-7.69v-19.47A7.83,7.83,0,0,0,617.45-116.86Z" transform="translate(-425.86 339.54)"/><path class="cls-3" d="M534.83-292.85h0a61.65,61.65,0,0,1,10.94,1v-30.94a11,11,0,0,0-10.95-10.95,11,11,0,0,0-11,10.95v30.94A61.54,61.54,0,0,1,534.83-292.85Z" transform="translate(-425.86 339.54)"/></svg>