<svg id="Слой_1" data-name="Слой 1" xmlns="http://www.w3.org/2000/svg" viewBox="0 0 291.46 267.35"><defs><style>.cls-1{fill:#fff;}</style></defs><title>icon_project</title><line class="cls-1" x1="21.85" y1="32.45" x2="196.14" y2="32.45"/><path class="cls-1" d="M-91.1-302.09H-265.4a5,5,0,0,1-5-5,5,5,0,0,1,5-5H-91.1a5,5,0,0,1,5,5A5,5,0,0,1-91.1-302.09Z" transform="translate(287.24 339.54)"/><line class="cls-1" x1="21.85" y1="32.45" x2="196.14" y2="32.45"/><path class="cls-1" d="M-91.1-302.09H-265.4a5,5,0,0,1-5-5,5,5,0,0,1,5-5H-91.1a5,5,0,0,1,5,5A5,5,0,0,1-91.1-302.09Z" transform="translate(287.24 339.54)"/><path class="cls-1" d="M1.82-212.07l-20.11-29.35a13.65,13.65,0,0,0-8.82-5.74A13.65,13.65,0,0,0-37.4-245l-112.54,77.1a15.51,15.51,0,0,0-5.26,6.18L-175.86-118a5.8,5.8,0,0,0,.46,5.75,5.8,5.8,0,0,0,4.78,2.52l.41,0,48.26-3.47a15.53,15.53,0,0,0,7.66-2.68L-1.75-193A13.77,13.77,0,0,0,1.82-212.07ZM-147-155.65l20.22,8.68a2.23,2.23,0,0,1,1.35,2l.79,22-39.11,2.81Zm32.2,28-.64-17.74a12.28,12.28,0,0,0-7.39-10.79l-16.31-7,83.48-57.2,24.35,35.53ZM-7.41-201.21l-15.65,10.73L-47.41-226l15.66-10.73a3.73,3.73,0,0,1,2.11-.66,3.39,3.39,0,0,1,.7.07,3.74,3.74,0,0,1,2.4,1.56l20.11,29.35A3.75,3.75,0,0,1-7.41-201.21Z" transform="translate(287.24 339.54)"/><path class="cls-1" d="M-80.41-121v28.78a10,10,0,0,1-10,10H-267.24a10,10,0,0,1-10-10V-319.54a10,10,0,0,1,10-10H-90.41a10,10,0,0,1,10,10v90.46l10-6.85v-83.61a20,20,0,0,0-20-20H-267.24a20,20,0,0,0-20,20V-92.19a20,20,0,0,0,20,20H-90.41a20,20,0,0,0,20-20v-35.63Z" transform="translate(287.24 339.54)"/><path class="cls-1" d="M-189.47-114l3.83-8.11H-226a5,5,0,0,0-5,5,5,5,0,0,0,5,5h36A8.51,8.51,0,0,1-189.47-114Z" transform="translate(287.24 339.54)"/><path class="cls-1" d="M-129.13-195.71v-66.66h20.07v52.91l10-6.85v-51.06a5,5,0,0,0-5-5h-30.07a5,5,0,0,0-5,5v78.52Z" transform="translate(287.24 339.54)"/><path class="cls-1" d="M-192.2-212.43h18.78v42.81a5,5,0,0,0,5,5h3l1.8-3.83a22,22,0,0,1,4.37-6.17h-4.18v-42.81a5,5,0,0,0-5-5H-197.2a5,5,0,0,0-5,5v62.78h-19.57V-288.77a5,5,0,0,0-5-5h-25.67a5,5,0,0,0-5,5v179.08a5,5,0,0,0,5,5,5,5,0,0,0,5-5V-283.77h15.67v134.12a5,5,0,0,0,5,5h29.57a5,5,0,0,0,5-5Z" transform="translate(287.24 339.54)"/></svg>