<svg id="Слой_1" data-name="Слой 1" xmlns="http://www.w3.org/2000/svg" viewBox="0 0 241.19 267.56"><defs><style>.cls-1{fill:#fff;}</style></defs><title>icon_timetable</title><path class="cls-1" d="M1148.33-339.54a10,10,0,0,0-10,10v20a10,10,0,0,0,10,10,10,10,0,0,0,10-10v-20A10,10,0,0,0,1148.33-339.54Z" transform="translate(-981.65 339.54)"/><path class="cls-1" d="M1025-339.54a10,10,0,0,0-10,10v20a10,10,0,0,0,10,10,10,10,0,0,0,10-10v-20A10,10,0,0,0,1025-339.54Z" transform="translate(-981.65 339.54)"/><path class="cls-1" d="M1134.33-305.54v-8.93H1039v8.93c0,.36,0,.71-.06,1.07h95.47C1134.35-304.83,1134.33-305.18,1134.33-305.54Z" transform="translate(-981.65 339.54)"/><path class="cls-1" d="M1195.12-177.94a5,5,0,0,0-7-1l-40.57,30.69h-25.61a5,5,0,0,0-5,5,5,5,0,0,0,5,5h29l43.25-32.71A5,5,0,0,0,1195.12-177.94Z" transform="translate(-981.65 339.54)"/><path class="cls-1" d="M1205.1-189.29a25.44,25.44,0,0,0,4.26-14.08c0-14.56-12.39-26.4-27.62-26.4A27.67,27.67,0,0,0,1156.47-214a78.08,78.08,0,0,0-8.14-.43,78.13,78.13,0,0,0-8.15.43,27.67,27.67,0,0,0-25.27-15.73c-15.23,0-27.62,11.84-27.62,26.4a25.44,25.44,0,0,0,4.26,14.08,69.09,69.09,0,0,0-17.73,46.06c0,39.29,33.42,71.25,74.51,71.25s74.5-32,74.5-71.25A69.09,69.09,0,0,0,1205.1-189.29Zm-23.36-30.48c9.72,0,17.62,7.36,17.62,16.4a15.46,15.46,0,0,1-1.61,6.85,74.35,74.35,0,0,0-27.24-14.73l-.16,0c-1-.31-2.09-.6-3.15-.86l-.3-.08A17.93,17.93,0,0,1,1181.74-219.77Zm-66.83,0a17.93,17.93,0,0,1,14.84,7.54l-.29.08c-1.07.26-2.12.55-3.17.86l-.15,0a74.43,74.43,0,0,0-27.24,14.73,15.46,15.46,0,0,1-1.61-6.85C1097.29-212.41,1105.19-219.77,1114.91-219.77ZM1148.33-82c-35.57,0-64.51-27.47-64.51-61.25a59.57,59.57,0,0,1,18.8-43.18l.19-.18a65.33,65.33,0,0,1,23.32-14.15l.1,0c.85-.29,1.71-.57,2.57-.83l.63-.19,2-.55,1-.25,1.25-.28c1.14-.25,2.29-.47,3.45-.67l.79-.13.74-.12a67.94,67.94,0,0,1,9.64-.68,67.91,67.91,0,0,1,9.63.68l.74.12.78.13c1.16.19,2.31.42,3.45.67l1.26.28,1,.25,2,.55.62.19c.87.26,1.74.54,2.59.83l.09,0a65.42,65.42,0,0,1,23.32,14.15l.19.18a59.57,59.57,0,0,1,18.8,43.18C1212.83-109.45,1183.89-82,1148.33-82Z" transform="translate(-981.65 339.54)"/><path class="cls-1" d="M1181.65-294.47v60.53c.62,0,1.25-.07,1.89-.07a30.13,30.13,0,0,1,8.11,1.11v-61.57a20,20,0,0,0-20-20h-9.32v8.93c0,.36,0,.71-.06,1.07h9.38A10,10,0,0,1,1181.65-294.47Z" transform="translate(-981.65 339.54)"/><path class="cls-1" d="M1075.64-114.47h-74a10,10,0,0,1-10-10v-170a10,10,0,0,1,10-10H1011c0-.36,0-.71,0-1.07v-8.93h-9.32a20,20,0,0,0-20,20v170a20,20,0,0,0,20,20h79.21A75.32,75.32,0,0,1,1075.64-114.47Z" transform="translate(-981.65 339.54)"/><path class="cls-1" d="M1080.86-181.14h-22.55v-56.67H1115v3.87a30.11,30.11,0,0,1,10,2.35v-6.22h46.67a5,5,0,0,0,5-5,5,5,0,0,0-5-5H1125v-46.66a5,5,0,0,0-5-5,5,5,0,0,0-5,5v46.66h-56.67v-46.66a5,5,0,0,0-5-5,5,5,0,0,0-5,5v46.66h-46.66a5,5,0,0,0-5,5,5,5,0,0,0,5,5h46.66v56.67h-46.66a5,5,0,0,0-5,5,5,5,0,0,0,5,5h46.66v46.67a5,5,0,0,0,5,5,5,5,0,0,0,5-5v-46.67h17.34A73,73,0,0,1,1080.86-181.14Z" transform="translate(-981.65 339.54)"/></svg>